<svg width="49" height="49" viewBox="0 0 49 49" fill="none" xmlns="http://www.w3.org/2000/svg">
<path d="M24.5002 4.08331C13.2302 4.08331 4.0835 13.23 4.0835 24.5C4.0835 35.77 13.2302 44.9166 24.5002 44.9166C35.7702 44.9166 44.9168 35.77 44.9168 24.5C44.9168 13.23 35.7702 4.08331 24.5002 4.08331ZM24.5002 10.2083C27.8893 10.2083 30.6252 12.9441 30.6252 16.3333C30.6252 19.7225 27.8893 22.4583 24.5002 22.4583C21.111 22.4583 18.3752 19.7225 18.3752 16.3333C18.3752 12.9441 21.111 10.2083 24.5002 10.2083ZM24.5002 39.2C19.396 39.2 14.8839 36.5866 12.2502 32.6258C12.3114 28.5629 20.4168 26.3375 24.5002 26.3375C28.5631 26.3375 36.6889 28.5629 36.7502 32.6258C34.1164 36.5866 29.6043 39.2 24.5002 39.2Z" fill="#323232"/>
</svg>
